#!OML:ASF H:\Punching\Project 1\Capture day 1\Session 1\female.ASF
:FULLY-SPECIFIED
:DEGREES
1092
root -1.83252 13.9301 4.98956 22.1491 -11.5717 -6.81856
lowerback 10.478 -5.48723 -5.08548
upperback -0.81469 -7.86544 1.21904
thorax -5.85093 -3.6865 5.27137
lowerneck -2.06127 12.7654 23.5695
upperneck 18.6909 17.1422 -10.0933
head 9.19411 8.98338 -5.309
rclavicle 5.00937e-014 6.36111e-015
rhumerus 14.9851 30.3978 -81.8344
rradius 134.662
rwrist -41.878
rhand -13.1776 -4.60863
rfingers 7.12502
rthumb 12.922 -34.1885
lclavicle 5.00937e-014 6.36111e-015
lhumerus 47.4811 -18.1061 71.3375
lradius 45.9496
lwrist -9.72995
lhand -11.8569 31.2177
lfingers 7.12502
lthumb 14.1949 60.7127
rfemur -67.138 8.95318 21.3513
rtibia 57.6268
rfoot -11.7074 6.49334
rtoes -0.630573
lfemur -18.5749 4.39655 2.02931
ltibia 59.3096
lfoot -26.1664 3.36508
ltoes -40.3042
1093
root -1.82273 13.9377 4.98322 22.1973 -12.0603 -7.16562
lowerback 10.6958 -5.77663 -5.14455
upperback -0.898648 -8.26381 1.35796
thorax -5.98626 -3.87062 5.53103
lowerneck -1.6141 13.1012 23.5847
upperneck 18.5633 17.7942 -10.5482
head 9.23316 9.26887 -5.3871
rclavicle 2.70347e-014 1.74931e-014
rhumerus 15.4013 30.9984 -81.4312
rradius 134.467
rwrist -41.2623
rhand -13.1535 -4.52619
rfingers 7.12502
rthumb 12.9453 -34.1046
lclavicle 2.70347e-014 1.74931e-014
lhumerus 47.5057 -14.7047 74.0461
lradius 40.5898
lwrist -15.0085
lhand -10.7185 29.2557
lfingers 7.12502
lthumb 15.2917 58.6704
rfemur -66.8757 9.10589 21.8151
rtibia 57.0887
rfoot -11.47 7.00489
rtoes -0.406028
lfemur -18.3816 4.642 2.18499
ltibia 59.4047
lfoot -26.0605 3.4355
ltoes -40.1344
1094
root -1.81266 13.9445 4.9791 22.2339 -12.4904 -7.4846
lowerback 10.9001 -6.00351 -5.07548
upperback -0.99069 -8.56287 1.48172
thorax -6.15306 -4.00822 5.69442
lowerneck -1.26647 13.3609 23.5614
upperneck 18.4486 18.334 -11.0572
head 9.27827 9.49491 -5.49129
rclavicle -6.2816e-014 2.06736e-014
rhumerus 15.8534 31.4943 -81.0548
rradius 134.308
rwrist -40.7069
rhand -13.1214 -4.46387
rfingers 7.12502
rthumb 12.9761 -34.0403
lclavicle -6.2816e-014 2.06736e-014
lhumerus 47.1104 -11.7597 76.2117
lradius 37.6825
lwrist -18.2122
lhand -10.0562 27.2083
lfingers 7.12502
lthumb 15.9296 56.5732
rfemur -66.6071 9.16776 22.2848
rtibia 56.5981
rfoot -11.2696 7.54976
rtoes -0.160361
lfemur -18.1852 4.90141 2.34905
ltibia 59.4715
lfoot -25.9753 3.40524
ltoes -39.9984
1095
root -1.80254 13.9511 4.97751 22.2547 -12.8747 -7.77134
lowerback 11.0795 -6.15385 -4.86899
upperback -1.08413 -8.74219 1.56893
thorax -6.34766 -4.09057 5.72931
lowerneck -1.03683 13.5407 23.5187
upperneck 18.3666 18.7439 -11.5807
head 9.33383 9.65612 -5.61249
rclavicle -7.95139e-015 2.06736e-014
rhumerus 16.2921 31.8692 -80.7352
rradius 134.188
rwrist -40.1863
rhand -13.1052 -4.45197
rfingers 7.12502
rthumb 12.9918 -34.0275
lclavicle -7.95139e-015 2.06736e-014
lhumerus 46.3751 -9.95116 77.0266
lradius 37.2379
lwrist -18.2626
lhand -10.0591 25.6064
lfingers 7.12502
lthumb 15.9267 54.9715
rfemur -66.3271 9.15444 22.7504
rtibia 56.1539
rfoot -11.1133 8.11615
rtoes 0.08897
lfemur -17.973 5.17069 2.51399
ltibia 59.4996
lfoot -25.9003 3.27418
ltoes -39.8754
1096
root -1.79214 13.9577 4.97822 22.2579 -13.2491 -8.0235
lowerback 11.2212 -6.20747 -4.53392
upperback -1.17222 -8.77567 1.60085
thorax -6.56169 -4.10602 5.6141
lowerneck -0.936839 13.643 23.4751
upperneck 18.3406 19.0197 -12.0879
head 9.40713 9.75267 -5.74292
rclavicle 7.15625e-015 -1.27222e-014
rhumerus 16.6707 32.1182 -80.4976
rradius 134.105
rwrist -39.6591
rhand -13.0862 -4.44679
rfingers 7.12502
rthumb 13.0101 -34.0211
lclavicle 7.15625e-015 -1.27222e-014
lhumerus 45.3373 -9.56484 76.3232
lradius 38.9754
lwrist -14.9461
lhand -10.7197 24.8482
lfingers 7.12502
lthumb 15.2905 54.263
rfemur -66.0409 9.10245 23.1907
rtibia 55.756
rfoot -10.9989 8.69794
rtoes 0.333273
lfemur -17.7276 5.46986 2.66373
ltibia 59.4823
lfoot -25.8247 3.04753
ltoes -39.753
1097
root -1.78167 13.9649 4.98104 22.249 -13.6084 -8.22206
lowerback 11.2861 -6.16532 -4.09445
upperback -1.2349 -8.66633 1.56671
thorax -6.74759 -4.05888 5.34173
lowerneck -0.97796 13.676 23.4269
upperneck 18.3674 19.161 -12.5323
head 9.49247 9.78577 -5.86558
rclavicle 1.04163e-013 -7.95139e-015
rhumerus 17.0089 32.2297 -80.3313
rradius 134.055
rwrist -39.1337
rhand -13.0917 -4.44791
rfingers 7.12502
rthumb 13.0048 -34.0226
lclavicle 1.04163e-013 -7.95139e-015
lhumerus 44.0716 -10.3055 74.644
lradius 42.4836
lwrist -9.21799
lhand -11.8874 24.9209
lfingers 7.12502
lthumb 14.1655 54.4179
rfemur -65.7667 9.02206 23.5723
rtibia 55.4091
rfoot -10.9269 9.26591
rtoes 0.544679
lfemur -17.4697 5.79524 2.78074
ltibia 59.4201
lfoot -25.7299 2.7247
ltoes -39.6225
1098
root -1.77177 13.9732 4.98557 22.2263 -13.934 -8.34849
lowerback 11.2837 -6.03781 -3.5865
upperback -1.2785 -8.43439 1.46886
thorax -6.90555 -3.95803 4.937
lowerneck -1.12237 13.6428 23.3818
upperneck 18.4328 19.1763 -12.9007
head 9.5781 9.76171 -5.9786
rclavicle 3.81667e-014 -1.59028e-015
rhumerus 17.2865 32.2102 -80.2412
rradius 134.033
rwrist -38.6469
rhand -13.1105 -4.43024
rfingers 7.12502
rthumb 12.9867 -34.006
lclavicle 3.81667e-014 -1.59028e-015
lhumerus 42.636 -11.6406 72.7228
lradius 47.258
lwrist -2.62798
lhand -13.2874 25.5162
lfingers 7.12502
lthumb 12.8161 55.1028
rfemur -65.5166 8.92669 23.8597
rtibia 55.1218
rfoot -10.8987 9.77644
rtoes 0.704446
lfemur -17.2208 6.1277 2.85286
ltibia 59.3165
lfoot -25.6019 2.31432
ltoes -39.49
1099
root -1.76338 13.983 4.99112 22.194 -14.1919 -8.38844
lowerback 11.2038 -5.84811 -3.06567
upperback -1.29515 -8.11758 1.33099
thorax -7.00144 -3.82116 4.45718
lowerneck -1.35907 13.5609 23.3069
upperneck 18.5259 19.0858 -13.1574
head 9.65386 9.69019 -6.06205
rclavicle 9.30312e-014 1.74931e-014
rhumerus 17.5515 32.0723 -80.1911
rradius 134.036
rwrist -38.2714
rhand -13.1392 -4.42806
rfingers 7.12502
rthumb 12.959 -34.0056
lclavicle 9.30312e-014 1.74931e-014
lhumerus 41.0766 -13.1168 71.0486
lradius 52.8122
lwrist 3.32578
lhand -14.4977 26.3638
lfingers 7.12502
lthumb 11.6492 56.02
rfemur -65.3109 8.82927 24.0207
rtibia 54.9063
rfoot -10.919 10.1687
rtoes 0.77714
lfemur -17.0172 6.45586 2.88083
ltibia 59.178
lfoot -25.4275 1.81171
ltoes -39.3437
1100
root -1.75724 13.9942 4.99708 22.1449 -14.3451 -8.32558
lowerback 11.0535 -5.62059 -2.57869
upperback -1.27972 -7.75484 1.1736
thorax -7.01777 -3.66519 3.95579
lowerneck -1.65326 13.4364 23.1818
upperneck 18.6153 18.9062 -13.3117
head 9.704 9.5784 -6.11551
rclavicle -3.65764e-014 1.59028e-015
rhumerus 17.8467 31.8316 -80.1435
rradius 134.056
rwrist -38.0841
rhand -13.1661 -4.4514
rfingers 7.12502
rthumb 12.9331 -34.0306
lclavicle -3.65764e-014 1.59028e-015
lhumerus 39.3744 -14.47 69.8691
lradius 58.7618
lwrist 7.66555
lhand -15.1206 27.2679
lfingers 7.12502
lthumb 11.0484 56.9572
rfemur -65.1567 8.72763 24.0297
rtibia 54.7769
rfoot -10.9942 10.395
rtoes 0.7392
lfemur -16.8839 6.75857 2.86034
ltibia 59.0111
lfoot -25.1988 1.22596
ltoes -39.1876
1101
root -1.75406 14.0069 5.00313 22.0685 -14.3619 -8.14477
lowerback 10.8804 -5.37936 -2.16402
upperback -1.25492 -7.38462 1.01459
thorax -6.99468 -3.50443 3.48702
lowerneck -1.96688 13.2771 23.0158
upperneck 18.7091 18.6602 -13.3819
head 9.73234 9.43812 -6.14472
rclavicle 9.06458e-014 1.11319e-014
rhumerus 18.1559 31.523 -80.0939
rradius 134.089
rwrist -38.143
rhand -13.2223 -4.53548
rfingers 7.12502
rthumb 12.8789 -34.1181
lclavicle 9.06458e-014 1.11319e-014
lhumerus 37.4896 -15.662 69.1388
lradius 64.8643
lwrist 10.2251
lhand -15.0737 28.1543
lfingers 7.12502
lthumb 11.0937 57.8411
rfemur -65.0554 8.61912 23.8626
rtibia 54.747
rfoot -11.1315 10.4177
rtoes 0.58786
lfemur -16.8363 7.01375 2.78336
ltibia 58.8229
lfoot -24.9121 0.574902
ltoes -39.0238
1102
root -1.75442 14.0207 5.00882 21.9503 -14.2126 -7.83515
lowerback 10.6966 -5.13971 -1.85036
upperback -1.21096 -7.02982 0.868493
thorax -6.92299 -3.34854 3.08668
lowerneck -2.31236 13.0906 22.7891
upperneck 18.8018 18.3583 -13.3717
head 9.74002 9.27228 -6.14484
rclavicle -4.37326e-014 4.77083e-015
rhumerus 18.5245 31.1505 -80.0078
rradius 134.117
rwrist -38.4538
rhand -13.3051 -4.67448
rfingers 7.12502
rthumb 12.7991 -34.2621
lclavicle -4.37326e-014 4.77083e-015
lhumerus 35.4615 -16.6919 68.7604
lradius 70.9822
lwrist 11.4846
lhand -14.4757 28.9018
lfingers 7.12502
lthumb 11.6704 58.5567
rfemur -64.997 8.49148 23.5071
rtibia 54.8282
rfoot -11.3368 10.2159
rtoes 0.320561
lfemur -16.8817 7.19857 2.64514
ltibia 58.6208
lfoot -24.5686 -0.128617
ltoes -38.8442
1103
root -1.75859 14.0351 5.01382 21.7852 -13.8695 -7.39211
lowerback 10.526 -4.91608 -1.6414
upperback -1.15527 -6.70983 0.739671
thorax -6.82472 -3.2057 2.76821
lowerneck -2.67913 12.8725 22.517
upperneck 18.8871 18.0019 -13.3105
head 9.72865 9.081 -6.12861
rclavicle -1.66979e-014 -1.27222e-014
rhumerus 18.9337 30.7276 -79.8889
rradius 134.125
rwrist -38.9861
rhand -13.4121 -4.86575
rfingers 7.12502
rthumb 12.696 -34.4598
lclavicle -1.66979e-014 -1.27222e-014
lhumerus 33.3005 -17.5664 68.6563
lradius 77.0542
lwrist 12.0541
lhand -13.4943 29.4524
lfingers 7.12502
lthumb 12.6167 59.0514
rfemur -64.9741 8.32265 22.9641
rtibia 55.0261
rfoot -11.6128 9.78842
rtoes -0.0551997
lfemur -17.033 7.28369 2.44226
ltibia 58.4169
lfoot -24.1708 -0.865727
ltoes -38.6454
